#!OML:ASF F:\VICON\USERDATA\INSTALL\rory3\rory3.ASF
:FULLY-SPECIFIED
:DEGREES
81
root 0.35158905256731043 17.53986094139521 7.870767599259557 -0.6189365108493694 -1.6831386901499568 -4.331356091634348
lfemur -18.393565488319023 -1.6523574677194934 -15.23929425659167
ltibia 31.47393189321709
lfoot -14.390704507945243 3.8891327320677567
ltoes -10.964096927223672
rfemur -7.182086382687433 4.580387516501279 28.780233667840303
rtibia 44.39306812000491
rfoot -14.61680261100784 -6.89317493292025
rtoes 6.289765148751323
lowerback 11.519498597020146 1.3530024246585153 2.7052488671516337
upperback 0.37145930219100537 2.1333189689206415 1.6028174461009248
thorax -5.862202043981171 1.0127819791576864 -0.14794666363518993
lowerneck -17.188110170244393 -3.3137654328796335 -1.5392862783468142
upperneck 18.708756251052627 -4.397310363600888 1.437724000197281
head 8.78135323868326 -2.0506931357108282 0.17965606567583325
lclavicle -8.899721184652997e-16 -7.550221344390363e-16
lhumerus -32.44478756370854 3.026113347264478 82.74000583402521
lradius 32.05791931143611
lwrist 7.291133673469291
lhand -29.573210193710036 19.860796785293243
lfingers 7.125020000000057
lthumb -2.904991854280058 49.82136220377789
rclavicle -8.899721184653e-16 -7.550221344390365e-16
rhumerus -27.072733582466945 -12.324327085835776 -81.93972881980831
rradius 34.61741061690084
rwrist 0.8488040108256536
rhand -18.13473828677246 33.263302269443685
rfingers 7.125020000000057
rthumb 8.140450791522463 -5.427445645536401
82
root 0.3415668422690958 17.564838300950456 6.311420912848059 -0.27410367244731915 -1.347185445690902 -3.6533932012207533
lfemur -16.26754977806868 -1.5803487415764668 -16.672506619004626
ltibia 32.82967024215924
lfoot -11.970158554389632 1.7077147412729294
ltoes -10.822718525730426
rfemur -9.729342688266915 3.975766547329804 27.78606763860204
rtibia 47.89093338111166
rfoot -11.337819185167241 -6.432174415857531
rtoes 5.5903483295058045
lowerback 11.871649550954546 1.1452911272299438 2.0291810288200547
upperback 0.21283936866732583 1.7859154910203456 1.534311988220995
thorax -6.240062606927549 0.8588475673300051 0.21101322166040604
lowerneck -17.401927598164974 -3.3469754849838034 -1.6245885395443598
upperneck 18.283854350483423 -4.440343451862219 1.6347877320385054
head 8.69070241271313 -2.0602999610629995 0.2546460035201811
lclavicle -8.705704394515752e-16 -7.399522840765966e-16
lhumerus -33.10703753547618 1.2779402236168975 83.80160779391858
lradius 38.99582498753092
lwrist 9.217464916836317
lhand -29.197186313522565 18.350972967725326
lfingers 7.125020000000057
lthumb -2.5418291640832598 48.31322698647058
rclavicle -8.705704394515757e-16 -7.399522840765967e-16
rhumerus -30.134553962051722 -11.139220909230094 -82.8304227863367
rradius 40.67059603356437
rwrist -0.26857359367416667
rhand -18.138254973287403 33.37002413631938
rfingers 7.125020000000057
rthumb 8.137267526187193 -4.767211695763872
83
root 0.3249193094305973 17.611585340159817 5.951004453238609 -0.02903210953525892 -1.1698722334990566 -3.2711858566152667
lfemur -14.813607916707742 -1.5775811101278399 -17.561952227886458
ltibia 33.95289068688119
lfoot -9.397216236479895 -0.028003267754517225
ltoes -10.563130397077082
rfemur -11.174616998833171 3.6983860918332563 27.341456407598013
rtibia 49.304715793217696
rfoot -8.883483683692688 -6.050999278093204
rtoes 5.103785848455086
lowerback 12.027744642774655 0.9968506064859459 1.6974900384258353
upperback 0.0801241031289493 1.5622238284460044 1.5147324101407507
thorax -6.490190453843244 0.7562186896858922 0.4098867063096872
lowerneck -17.5358537189927 -3.358144442233293 -1.6867772140984783
upperneck 18.03266214374082 -4.452101663972928 1.745727707001322
head 8.636670152915304 -2.0595790739266087 0.3016329457200424
lclavicle -8.617225521524553e-16 -7.330716468406418e-16
lhumerus -33.861866113727395 0.1083325883440387 84.53925124188225
lradius 44.14302933059176
lwrist 10.660346453136462
lhand -28.924519988331383 17.15711085176828
lfingers 7.125020000000057
lthumb -2.278497521829413 47.12028404111291
rclavicle -8.617225521524546e-16 -7.330716468406421e-16
rhumerus -32.3447389667212 -10.206626634574121 -83.49527896862595
rradius 45.288104752587394
rwrist -1.1921998582618625
rhand -18.118189162005695 33.19170077204869
rfingers 7.125020000000057
rthumb 8.156742302347947 -4.215590095767451
84
root 0.3130188110091486 17.668908853559916 6.385891449532476 0.1982451018955354 -1.0680186848835709 -3.061057803256792
lfemur -14.236459802476897 -1.5699808344002057 -18.18543388769955
ltibia 34.83882092810134
lfoot -7.145960889325092 -1.5187249721241747
ltoes -10.23044116850849
rfemur -11.41858694470724 3.6348754313414244 27.216031219779293
rtibia 49.54291611370768
rfoot -6.409525177175251 -5.690190756535051
rtoes 4.446184694416774
lowerback 12.07101050106442 0.9355339051280702 1.6094311947975914
upperback -0.0515438333786524 1.4833772983173628 1.491640254672747
thorax -6.674735446543648 0.716736323327791 0.45070875908352853
lowerneck -17.610841545587814 -3.4030700173058275 -1.752714379466413
upperneck 17.827264401944102 -4.510859717511789 1.8514477183086615
head 8.58809606684929 -2.080586155008568 0.34182325715365053
lclavicle -8.319841865466419e-16 -7.100393276433049e-16
lhumerus -35.04327957957311 -0.6808730410611843 85.15273521226736
lradius 48.62202984586765
lwrist 11.87674403070195
lhand -28.703200841726417 16.078623942721283
lfingers 7.125020000000057
lthumb -2.0647623837682083 46.04345643235439
rclavicle -8.319841865466423e-16 -7.100393276433052e-16
rhumerus -33.956552053219625 -9.076035031202455 -84.20684365828386
rradius 49.70236656255344
rwrist -2.1969774369052004
rhand -18.0606964333833 32.87528611110757
rfingers 7.125020000000057
rthumb 8.212254496583473 -3.6744173710938792
85
root 0.30773775438597983 17.716578830795015 6.676523219068285 0.37116881530336787 -1.0175622978906602 -2.898890457323132
lfemur -14.03792228499669 -1.5527511928237865 -18.701033183053728
ltibia 35.44967068894254
lfoot -5.971802554205498 -2.3398799548090823
ltoes -9.912504412337777
rfemur -11.658118249566943 3.5141696570075447 27.15763026560632
rtibia 49.47515177186874
rfoot -4.898420597913866 -5.523018441224393
rtoes 3.7116833740088784
lowerback 12.108261633383977 0.8943512752001466 1.5514867821158969
upperback -0.1393970294018731 1.427140166065268 1.4531800550291378
thorax -6.803880142477694 0.6886600554550739 0.4543638771786269
lowerneck -17.682732433312633 -3.444723067665309 -1.8145107616894993
upperneck 17.635618309154225 -4.567008081694769 1.9435509617082825
head 8.541200273200994 -2.10015421028742 0.375520451197197
lclavicle -8.480616436046936e-16 -7.225623455383696e-16
lhumerus -35.942906243201946 -1.39998880797991 85.64898324751199
lradius 52.01634266409661
lwrist 12.750658455730726
lhand -28.58509465736955 15.25719609915569
lfingers 7.125020000000057
lthumb -1.9506951671604944 45.22295804483133
rclavicle -8.480616436046937e-16 -7.225623455383699e-16
rhumerus -35.07562364614481 -8.065679527115945 -84.91698989717956
rradius 53.10603731727522
rwrist -3.1191209462449963
rhand -18.03822142702727 32.65796000404721
rfingers 7.125020000000057
rthumb 8.234016075267526 -3.346254727976698
86
root 0.31030406525984 17.72671248133064 6.887439128770463 0.3834117466917771 -1.1391112251678295 -2.989570838698217
lfemur -14.718907833765584 -1.6142368434845016 -18.60601224372042
ltibia 35.262764459732615
lfoot -5.817668235564264 -2.2584056159731225
ltoes -9.643529413026982
rfemur -10.773146353050358 3.496492450872135 27.402677252051326
rtibia 49.48969450184211
rfoot -4.616059396307661 -5.19988239708793
rtoes 3.6634065824368083
lowerback 12.08023548405203 0.9891560309199527 1.7275723557604041
upperback -0.14887377313950917 1.5678595303503302 1.4209574888526826
thorax -6.79149372439221 0.7534845420000809 0.29726344641392727
lowerneck -17.690923447599786 -3.4740440656273774 -1.8157457502414038
upperneck 17.62617919438816 -4.610951966844207 1.966750052084832
head 8.539767768825808 -2.118332978714534 0.37688988895061504
lclavicle -8.19127566398417e-16 -7.001943908901164e-16
lhumerus -36.4152156882642 -1.3157895458480513 85.71671190648314
lradius 52.35271379179288
lwrist 12.716003620244745
lhand -28.57125795658093 15.115637590512865
lfingers 7.125020000000057
lthumb -1.9373097982742065 45.082775818263414
rclavicle -8.191275663984175e-16 -7.001943908901168e-16
rhumerus -34.9013901241212 -7.607890355006356 -85.20463012467503
rradius 53.89627620632408
rwrist -3.4640649044329197
rhand -18.048406582367054 32.66667078144451
rfingers 7.125020000000057
rthumb 8.224226981249638 -3.3104648454906407
87
root 0.28424431648003734 17.718654215248435 5.995205035052769 0.5838409438057924 -1.1966204647847487 -3.103132451257923
lfemur -15.135688154165198 -1.4559035099613828 -18.422218029075847
ltibia 36.38918483471814
lfoot -5.8043774641020445 -1.9923472226039842
ltoes -9.585427971619337
rfemur -11.373364237364669 3.323394499191621 27.65547484069398
rtibia 50.492496318181615
rfoot -6.17122174788179 -5.190378707309445
rtoes 3.4625975284177355
lowerback 12.327413378077992 0.9958382337644592 1.776516126451459
upperback -0.12685534795219214 1.5740201934611329 1.4182446125594306
thorax -6.901774845051727 0.7597739715989726 0.28439458298626924
lowerneck -17.81645228468129 -3.4769693890487097 -1.7990504690984321
upperneck 17.30258571817109 -4.627294413057986 2.0668815200540522
head 8.454555492295336 -2.1157560755338536 0.40644006358666185
lclavicle -7.740849670001129e-16 -6.653043825058178e-16
lhumerus -36.34735464596065 -1.7904468183150035 86.19223919130934
lradius 54.53700068118015
lwrist 13.400848532590535
lhand -28.480781690451547 14.72005999244528
lfingers 7.125020000000057
lthumb -1.8499434833406365 44.686184463995296
rclavicle -7.740849670001136e-16 -6.653043825058182e-16
rhumerus -35.33925944270563 -6.583461681268518 -85.93838531481867
rradius 55.93661986597254
rwrist -4.136594241392155
rhand -18.167476276912076 33.013933221524006
rfingers 7.125020000000057
rthumb 8.109289863707884 -2.9507800505417476
